<svg width="20" height="19" viewBox="0 0 20 19" fill="none" xmlns="http://www.w3.org/2000/svg">
<path fill-rule="evenodd" clip-rule="evenodd" d="M7.66432 12.5777C11.2575 12.5777 14.3286 13.119 14.3286 15.2811C14.3286 17.4433 11.278 18 7.66432 18C4.07015 18 1 17.4636 1 15.3005C1 13.1374 4.04969 12.5777 7.66432 12.5777Z" stroke="white" stroke-width="1.5" stroke-linecap="round" stroke-linejoin="round"/>
<path fill-rule="evenodd" clip-rule="evenodd" d="M7.66419 9.49177C5.30509 9.49177 3.39209 7.59105 3.39209 5.24588C3.39209 2.90072 5.30509 1 7.66419 1C10.0223 1 11.9353 2.90072 11.9353 5.24588C11.9441 7.58233 10.0447 9.48306 7.69439 9.49177H7.66419Z" stroke="white" stroke-width="1.5" stroke-linecap="round" stroke-linejoin="round"/>
<path d="M14.377 8.38964C15.9364 8.17178 17.1374 6.84137 17.1403 5.23113C17.1403 3.64413 15.9763 2.32728 14.45 2.07843" stroke="white" stroke-width="1.5" stroke-linecap="round" stroke-linejoin="round"/>
<path d="M16.4346 12.1181C17.9453 12.3418 19.0002 12.8685 19.0002 13.953C19.0002 14.6996 18.5034 15.1837 17.7008 15.4868" stroke="white" stroke-width="1.5" stroke-linecap="round" stroke-linejoin="round"/>
</svg>
