<svg width="20" height="20" viewBox="0 0 20 20" fill="none" xmlns="http://www.w3.org/2000/svg">
<path d="M10.0016 9.99836V9.49836V7.50164C10.0016 7.50077 10.0016 7.50029 10.0015 7.5001M10.0016 9.99836L10.0016 7.50012C10.0017 7.50013 10.0016 7.50013 10.0015 7.5001M10.0016 9.99836H10.5016M10.0016 9.99836H10.5016M10.0015 7.5001C10.0015 7.49989 10.0015 7.5 10.0016 7.50028C10.0017 7.50052 10.0017 7.50042 10.0015 7.50017C10.0014 7.50013 10.0014 7.5001 10.0014 7.50007M10.0015 7.5001L10.0014 7.50007M10.5016 9.99836H12.4984C12.499 9.99836 12.4995 9.9984 12.4997 9.99843C12.4997 9.99846 12.4998 9.99849 12.4998 9.99853C12.5001 9.99878 12.5001 9.99888 12.5 9.99865C12.4999 9.99857 12.4999 9.99851 12.4999 9.99846C12.4998 9.99815 12.5 9.99844 12.5 10C12.5 10.0007 12.5 10.0012 12.4999 10.0014C12.4999 10.0017 12.4998 10.0017 12.4999 10.0015M10.5016 9.99836H9.99836M9.99836 9.99836H9.49836H7.50164C7.50077 9.99836 7.50029 9.99842 7.5001 9.99846C7.50006 9.99865 7.5 9.99913 7.5 10C7.5 10.0007 7.50004 10.0011 7.50007 10.0014C7.5001 10.0014 7.50013 10.0014 7.50017 10.0015C7.50021 10.0015 7.50025 10.0015 7.50028 10.0016C7.50054 10.0016 7.50097 10.0016 7.50164 10.0016H9.49836H9.99836V10.5016V12.4984C9.99836 12.4999 9.99856 12.5002 9.99846 12.4999M9.99836 9.99836V9.49836M9.99836 9.99836V9.49836M9.99846 12.4999C9.99845 12.4999 9.99842 12.4998 9.99839 12.4997C9.99829 12.4995 9.99828 12.4996 9.99853 12.4998C9.99857 12.4999 9.99861 12.4999 9.99864 12.4999C9.9989 12.5 9.99933 12.5 10 12.5C10.0009 12.5 10.0013 12.4999 10.0015 12.4999C10.0015 12.4999 10.0016 12.4998 10.0016 12.4997C10.0016 12.4995 10.0016 12.499 10.0016 12.4984V10.5016V10.0016H10.5016H12.4984C12.4992 10.0016 12.4997 10.0016 12.4999 10.0015M9.99846 12.4999C9.99834 12.4999 9.99831 12.4999 9.9984 12.4999L9.99846 12.4999ZM12.4999 10.0015C12.4999 10.0015 12.4999 10.0014 12.5 10.0014C12.5 10.0012 12.5 10.0012 12.5 10.0012C12.5 10.0013 12.4999 10.0013 12.4998 10.0015C12.4996 10.0017 12.4995 10.0017 12.4997 10.0016C12.5 10.0015 12.5001 10.0015 12.4999 10.0015ZM7.5001 10.0015C7.50002 10.0015 7.49998 10.0015 7.49999 10.0015L7.5001 10.0015ZM7.5001 10.0015C7.50012 10.0016 7.50013 10.0016 7.50013 10.0016L7.5001 10.0015ZM9.99836 9.49836V7.50164C9.99836 7.50097 9.9984 7.50054 9.99843 7.50028C9.99846 7.50025 9.99849 7.50021 9.99853 7.50017C9.99857 7.50013 9.99861 7.5001 9.99864 7.50007C9.9989 7.50004 9.99933 7.5 10 7.5C10.0007 7.5 10.0011 7.50004 10.0014 7.50007M9.99836 9.49836L10.0014 7.50007M9.99846 7.5001C9.99839 7.50012 9.99835 7.50013 9.99835 7.50013L9.99846 7.5001Z" stroke="url(#paint0_linear)"/>
<circle cx="10" cy="10" r="9.5" stroke="url(#paint1_linear)"/>
<defs>
<linearGradient id="paint0_linear" x1="7" y1="5.36" x2="13.7433" y2="6.0349" gradientUnits="userSpaceOnUse">
<stop stop-color="#5484FF"/>
<stop offset="1" stop-color="#5F44E7"/>
</linearGradient>
<linearGradient id="paint1_linear" x1="3.5001e-07" y1="-5.46667" x2="22.4775" y2="-3.217" gradientUnits="userSpaceOnUse">
<stop stop-color="#5484FF"/>
<stop offset="1" stop-color="#5F44E7"/>
</linearGradient>
</defs>
</svg>
