<svg width="30" height="30" viewBox="0 0 30 30" fill="none" xmlns="http://www.w3.org/2000/svg">
<path d="M25.6114 4.38839C19.7605 -1.46251 10.2399 -1.46309 4.38839 4.38839C-1.46309 10.2399 -1.46251 19.7599 4.38839 25.6114C10.2393 31.4629 19.7599 31.4629 25.6114 25.6114C31.4623 19.7599 31.4623 10.2393 25.6114 4.38839ZM20.9177 20.9177C20.467 21.3685 19.7362 21.3685 19.2855 20.9177L14.9999 16.6322L10.5106 21.1215C10.0598 21.5723 9.32907 21.5723 8.87829 21.1215C8.42751 20.6707 8.42751 19.94 8.87829 19.4892L13.3676 14.9999L9.08204 10.7143C8.63126 10.2635 8.63126 9.53224 9.08204 9.08204C9.53282 8.63126 10.2635 8.63126 10.7143 9.08204L14.9999 13.3676L19.0811 9.28636C19.5319 8.83558 20.2626 8.83558 20.7134 9.28636C21.1642 9.73714 21.1642 10.4679 20.7134 10.9186L16.6322 14.9999L20.9177 19.2855C21.3685 19.7362 21.3685 20.467 20.9177 20.9177Z" fill="url(#paint0_linear)"/>
<defs>
<linearGradient id="paint0_linear" x1="5.25008e-07" y1="-8.20001" x2="33.7158" y2="-4.8256" gradientUnits="userSpaceOnUse">
<stop stop-color="#5484FF"/>
<stop offset="1" stop-color="#5F44E7"/>
</linearGradient>
</defs>
</svg>
