<svg width="16" height="16" viewBox="0 0 16 16" fill="none" xmlns="http://www.w3.org/2000/svg">
<path d="M13.6594 2.34048C10.5389 -0.780004 5.46126 -0.780312 2.34048 2.34048C-0.780312 5.46126 -0.780004 10.5386 2.34048 13.6594C5.46095 16.7802 10.5386 16.7802 13.6594 13.6594C16.7799 10.5386 16.7799 5.46095 13.6594 2.34048ZM11.1561 11.1561C10.9157 11.3965 10.526 11.3965 10.2856 11.1561L7.99994 8.87049L5.60563 11.2648C5.36522 11.5052 4.97551 11.5052 4.73509 11.2648C4.49467 11.0244 4.49467 10.6347 4.73509 10.3942L7.1294 7.99994L4.84375 5.7143C4.60334 5.47388 4.60334 5.08386 4.84375 4.84375C5.08417 4.60334 5.47388 4.60334 5.7143 4.84375L7.99994 7.1294L10.1766 4.95273C10.417 4.71231 10.8067 4.71231 11.0472 4.95273C11.2876 5.19314 11.2876 5.58285 11.0472 5.82327L8.87049 7.99994L11.1561 10.2856C11.3965 10.526 11.3965 10.9157 11.1561 11.1561Z" fill="#F8F3FF"/>
</svg>
