<svg width="18" height="16" viewBox="0 0 18 16" fill="none" xmlns="http://www.w3.org/2000/svg">
<path d="M7 12.4019H1" stroke="white" stroke-width="1.5" stroke-linecap="round" stroke-linejoin="round"/>
<path d="M11 3.40188H17" stroke="white" stroke-width="1.5" stroke-linecap="round" stroke-linejoin="round"/>
<path fill-rule="evenodd" clip-rule="evenodd" d="M6 3.5C6 2.11944 4.88056 1 3.5 1C2.11944 1 1 2.11944 1 3.5C1 4.88056 2.11944 6 3.5 6C4.88056 6 6 4.88056 6 3.5Z" stroke="white" stroke-width="1.5" stroke-linecap="round" stroke-linejoin="round"/>
<path fill-rule="evenodd" clip-rule="evenodd" d="M17 12.5C17 11.1194 15.8814 10 14.5009 10C13.1194 10 12 11.1194 12 12.5C12 13.8806 13.1194 15 14.5009 15C15.8814 15 17 13.8806 17 12.5Z" stroke="white" stroke-width="1.5" stroke-linecap="round" stroke-linejoin="round"/>
</svg>
