<svg width="13" height="16" viewBox="0 0 13 16" fill="none" xmlns="http://www.w3.org/2000/svg">
<path d="M6.36178 11.0656V10.7904L6.12929 10.6431C5.94005 10.5233 5.82129 10.3199 5.82129 10.0938C5.82129 9.74041 6.11604 9.4375 6.50021 9.4375C6.88438 9.4375 7.17913 9.74041 7.17913 10.0938C7.17913 10.3204 7.0598 10.5243 6.86978 10.644L6.63629 10.7911V11.067V12.4375C6.63629 12.4974 6.58401 12.5625 6.49903 12.5625C6.41404 12.5625 6.36178 12.4974 6.36178 12.4375V11.0656Z" stroke="black"/>
<path d="M9.44 5.875V6.375H9.94H11.0882C11.8754 6.375 12.5 7.00138 12.5 7.75V14.125C12.5 14.8736 11.8754 15.5 11.0882 15.5H1.91176C1.12456 15.5 0.5 14.8736 0.5 14.125V7.75C0.5 7.00138 1.12456 6.375 1.91176 6.375H3.05764H3.55764V5.875V3.30531C3.55764 1.77769 4.85833 0.5 6.49882 0.5C8.13931 0.5 9.44 1.77769 9.44 3.30531V5.875ZM8.66549 6.375H9.16549V5.875V3.30531C9.16549 1.87132 7.94447 0.75 6.49882 0.75C5.05317 0.75 3.83215 1.87132 3.83215 3.30531V5.875V6.375H4.33215H8.66549ZM11.0882 15.25C11.7066 15.25 12.2255 14.7549 12.2255 14.125V7.75C12.2255 7.12012 11.7066 6.625 11.0882 6.625H1.91176C1.29344 6.625 0.77451 7.12012 0.77451 7.75V14.125C0.77451 14.7549 1.29344 15.25 1.91176 15.25H11.0882Z" stroke="black"/>
</svg>
